<?xml version="1.0" encoding="UTF-8" standalone="no"?>
<!-- Created with Inkscape (http://www.inkscape.org/) -->

<svg
   xmlns:dc="http://purl.org/dc/elements/1.1/"
   xmlns:cc="http://creativecommons.org/ns#"
   xmlns:rdf="http://www.w3.org/1999/02/22-rdf-syntax-ns#"
   xmlns:svg="http://www.w3.org/2000/svg"
   xmlns="http://www.w3.org/2000/svg"
   xmlns:sodipodi="http://sodipodi.sourceforge.net/DTD/sodipodi-0.dtd"
   xmlns:inkscape="http://www.inkscape.org/namespaces/inkscape"
   width="320mm"
   height="100mm"
   viewBox="0 0 1133.8583 354.3307"
   id="svg2"
   version="1.1"
   inkscape:version="0.92.2 (5c3e80d, 2017-08-06)"
   sodipodi:docname="ATR_black_v1.2-yellow.svg">
  <defs
     id="defs4" />
  <sodipodi:namedview
     id="base"
     pagecolor="#ffffff"
     bordercolor="#666666"
     borderopacity="1.0"
     inkscape:pageopacity="0.0"
     inkscape:pageshadow="2"
     inkscape:zoom="0.35068542"
     inkscape:cx="229.69987"
     inkscape:cy="454.17048"
     inkscape:document-units="px"
     inkscape:current-layer="layer1"
     showgrid="false"
     inkscape:window-width="1280"
     inkscape:window-height="703"
     inkscape:window-x="0"
     inkscape:window-y="22"
     inkscape:window-maximized="0"
     showguides="true"
     inkscape:guide-bbox="true">
    <sodipodi:guide
       position="332.14226,402.78152"
       orientation="0,1"
       id="guide4267"
       inkscape:locked="false" />
    <sodipodi:guide
       position="244.18753,504.31318"
       orientation="1,0"
       id="guide5797"
       inkscape:locked="false" />
    <sodipodi:guide
       position="323.091,626.11179"
       orientation="0,1"
       id="guide5799"
       inkscape:locked="false" />
    <sodipodi:guide
       position="537.87524,-15.683571"
       orientation="0,1"
       id="guide4275"
       inkscape:locked="false" />
    <sodipodi:guide
       position="550.01226,340.79998"
       orientation="0,1"
       id="guide4303"
       inkscape:locked="false" />
    <sodipodi:guide
       position="622.96109,69.694209"
       orientation="0,1"
       id="guide4351"
       inkscape:locked="false" />
    <sodipodi:guide
       position="506.25001,99.999995"
       orientation="0,1"
       id="guide4411"
       inkscape:locked="false" />
    <sodipodi:guide
       position="487.00001,28.749999"
       orientation="0,1"
       id="guide4470"
       inkscape:locked="false" />
    <sodipodi:guide
       position="777.17938,158.78806"
       orientation="0,1"
       id="guide4527"
       inkscape:locked="false" />
    <sodipodi:guide
       position="545.61345,339.18894"
       orientation="1,0"
       id="guide4183"
       inkscape:locked="false" />
    <sodipodi:guide
       position="557.01847,339.25195"
       orientation="1,0"
       id="guide4185"
       inkscape:locked="false" />
    <sodipodi:guide
       position="527.71829,347.56942"
       orientation="0,1"
       id="guide4187"
       inkscape:locked="false" />
  </sodipodi:namedview>
  <metadata
     id="metadata7">
    <rdf:RDF>
      <cc:Work
         rdf:about="">
        <dc:format>image/svg+xml</dc:format>
        <dc:type
           rdf:resource="http://purl.org/dc/dcmitype/StillImage" />
        <dc:title></dc:title>
      </cc:Work>
    </rdf:RDF>
  </metadata>
  <g
     inkscape:label="Calque 1"
     inkscape:groupmode="layer"
     id="layer1"
     transform="translate(0,-698.03151)">
    <path
       style="fill:none;fill-opacity:1;stroke:#f9b800;stroke-width:2;stroke-linecap:round;stroke-linejoin:round;stroke-miterlimit:4;stroke-dasharray:none;stroke-opacity:1"
       d="m 578.44302,965.19452 a 26.310879,22.86746 0 0 1 -26.31088,22.86746 26.310879,22.86746 0 0 1 -26.31088,-22.86746 26.310879,22.86746 0 0 1 26.31088,-22.86746 26.310879,22.86746 0 0 1 26.31088,22.86746 z"
       id="path4185" />
    <path
       id="path4815-9-3"
       style="fill:none;fill-rule:evenodd;stroke:#f9b800;stroke-width:2.36100006;stroke-linecap:butt;stroke-linejoin:round;stroke-miterlimit:4;stroke-dasharray:none;stroke-opacity:1"
       d="m 519.91631,907.99566 c -0.1639,2.0166 -4.00062,12.50031 -5.40169,15.74038 -0.67667,1.04831 -0.7856,2.5669 -2.61372,3.28166 -3.02079,0.32682 -7.70856,0.71404 -7.8895,0.20118 -0.4098,-0.73964 6.22543,-14.20583 8.41225,-17.91636 2.01033,-2.00243 5.6785,-1.51749 7.49266,-1.30686 z m 64.2147,-0.333 c 0.16389,2.01659 4.00061,12.50031 5.40168,15.74038 0.67667,1.0483 0.7856,2.5669 2.61372,3.28166 3.02079,0.32682 7.70856,0.71404 7.8895,0.20117 0.4098,-0.73963 -6.22543,-14.20583 -8.41225,-17.91636 -2.01033,-2.00243 -5.67849,-1.51748 -7.49265,-1.30685 z m -6.28653,-0.15016 -22.12078,-0.56657 0.36547,17.51847 c 14.00771,-0.5755 25.01483,0.0511 29.13757,1.02016 z m -51.80216,0.17861 22.12078,-0.56657 -0.36546,17.51847 c -14.00772,-0.5755 -25.01484,0.0511 -29.13758,1.02016 z"
       inkscape:connector-curvature="0" />
    <path
       style="fill:none;fill-rule:evenodd;stroke:#f9b800;stroke-width:2.24340487;stroke-linecap:round;stroke-linejoin:round;stroke-miterlimit:4;stroke-dasharray:none;stroke-opacity:1"
       d="m 719.86358,914.93736 c 7.75444,0.33895 13.94662,0.15715 19.86424,-0.11619 0.89501,1.33178 1.88258,4.78536 -10e-6,7.20224 -5.88571,2.17422 -13.28156,1.67704 -19.16727,0.46466 -1.83054,-1.61804 -1.65434,-3.7643 -0.69696,-7.55074 z"
       id="path5795"
       inkscape:connector-curvature="0"
       sodipodi:nodetypes="cccccc" />
    <path
       style="fill:none;fill-rule:evenodd;stroke:#f9b800;stroke-width:2.24340487;stroke-linecap:round;stroke-linejoin:round;stroke-miterlimit:4;stroke-dasharray:none;stroke-opacity:1"
       d="m 363.0803,914.76294 c 7.75444,0.33895 13.94662,0.15716 19.86424,-0.11619 0.89501,1.33178 1.88258,4.78536 -2e-5,7.20224 -5.8857,2.17422 -13.28155,1.67704 -19.16726,0.46466 -1.83054,-1.61804 -1.65434,-3.7643 -0.69696,-7.55073 z"
       id="path5795-2"
       inkscape:connector-curvature="0"
       sodipodi:nodetypes="cccccc" />
    <path
       style="fill:none;fill-rule:evenodd;stroke:#f9b800;stroke-width:3;stroke-linecap:butt;stroke-linejoin:round;stroke-miterlimit:4;stroke-dasharray:none;stroke-opacity:1"
       d="m 392.81055,194.97266 c 34.19393,0.64665 69.71875,1.28439 108.39843,1.92187 13.97033,-7.03172 84.76539,-8.48188 99.97461,0.4043 26.13078,0.23504 64.68399,-0.21092 108.94336,-1.05469 m 39.8165,-0.98437 c 122.97424,-2.74712 271.74825,-7.55171 331.83585,-9.95118 2.8428,0.20175 5.473,-4.44294 -0.2949,-4.625 -183.17886,-4.00086 -358.88496,-6.26611 -529.64651,-7.3789 -177.30264,0.38682 -353.09524,4.55107 -529.451171,7.30469 -5.980632,0.28709 -4.02036,4.61488 -0.34375,4.72265 111.966561,3.7822 211.007071,6.46119 331.511721,8.88086"
       id="path4212"
       inkscape:connector-curvature="0"
       sodipodi:nodetypes="ccccccccccc"
       transform="translate(0,698.03149)" />
    <path
       style="fill:none;fill-opacity:1;fill-rule:evenodd;stroke:#f9b800;stroke-width:2.84168506;stroke-linecap:butt;stroke-linejoin:round;stroke-miterlimit:4;stroke-dasharray:none;stroke-opacity:1"
       d="m 253.38697,889.96699 c 0.30363,5.80799 1.14518,16.75239 4.02853,17.08716 2.50905,-0.54744 3.63231,-10.27849 4.37986,-16.74712"
       id="path4472"
       inkscape:connector-curvature="0"
       sodipodi:nodetypes="ccc" />
    <path
       id="path4220"
       style="fill:none;fill-rule:evenodd;stroke:#f9b800;stroke-width:3;stroke-linecap:butt;stroke-linejoin:round;stroke-miterlimit:4;stroke-dasharray:none;stroke-opacity:1"
       d="m 491.19033,953.535 c 0.0799,3.3771 -0.56947,6.2679 -1.60005,8.9046 -3.095,2.6711 -5.66439,4.8375 -12.31346,14.2614 -17.76417,23.1322 24.59037,40.7073 57.53463,38.848 1.05461,-1.8063 2.26682,-5.8207 10.61832,-5.7928 4.66687,-0.065 6.27034,-0.083 11.82552,-0.1032 7.09555,0.132 10.28406,1.8775 10.91518,6.0572 1.18592,0.7906 76.2252,0.4106 57.98091,-39.1488 -5.12949,-8.1813 -6.55884,-8.9362 -10.99168,-14.3309 0,0 -3.1651,-5.2948 -2.97248,-7.9883 1.57798,15.6947 -13.78126,43.32341 -50.82659,48.1934 -3.04558,-2.1623 -1.01375,-5.4018 -9.24102,-5.3068 -8.14987,0.094 -5.62549,0.1948 -9.87607,4.7316 -19.22139,0.883 -51.81247,-19.58822 -51.05321,-48.3258 z m 118.86437,13.71128 c 2.58083,-6.38262 2.47835,-13.05396 2.5039,-19.8789 3.7e-4,-31.45772 -27.22828,-56.95934 -60.8164,-56.95899 -34.59743,-1.97969 -62.4394,27.8938 -60.50391,63.14649"
       inkscape:connector-curvature="0"
       sodipodi:nodetypes="ccccccccccccccccccc" />
    <path
       style="fill:none;fill-opacity:1;stroke:#f9b800;stroke-width:2.51519942;stroke-linecap:round;stroke-linejoin:round;stroke-miterlimit:4;stroke-dasharray:none;stroke-opacity:1"
       d="m 543.11011,1012.1541 0.77696,0 c 2.13515,0 3.85407,1.7189 3.85407,3.8541 l 0,11.8362 c 0,2.1351 -1.71892,3.854 -3.85407,3.854 l -0.77696,0 c -2.13515,0 -3.85407,-1.7189 -3.85407,-3.854 l 0,-11.8362 c 0,-2.1352 1.71892,-3.8541 3.85407,-3.8541 z"
       id="rect4228" />
    <path
       style="fill:none;fill-opacity:1;stroke:#f9b800;stroke-width:2.556494;stroke-linecap:round;stroke-linejoin:round;stroke-miterlimit:4;stroke-dasharray:none;stroke-opacity:1"
       d="m 559.03488,1011.8401 0.44154,0 c 2.21663,0 4.00113,1.7845 4.00113,4.0011 l 0,12.2879 c 0,2.2166 -1.7845,4.0011 -4.00113,4.0011 l -0.44154,0 c -2.21662,0 -4.00113,-1.7845 -4.00113,-4.0011 l 0,-12.2879 c 0,-2.2166 1.78451,-4.0011 4.00113,-4.0011 z"
       id="rect4228-3" />
    <path
       style="fill:none;fill-opacity:1;stroke:#f9b800;stroke-width:2.70359015;stroke-linecap:round;stroke-linejoin:round;stroke-miterlimit:4;stroke-dasharray:none;stroke-opacity:1"
       d="m 451.4982,1007.8566 2.73023,0 c 1.54191,0 2.78324,1.2414 2.78324,2.7833 l 0,17.528 c 0,1.5419 -1.24133,2.7832 -2.78324,2.7832 l -2.73023,0 c -1.54191,0 -2.78323,-1.2413 -2.78323,-2.7832 l 0,-17.528 c 0,-1.5419 1.24132,-2.7833 2.78323,-2.7833 z"
       id="rect4228-6" />
    <path
       style="fill:none;fill-opacity:1;stroke:#f9b800;stroke-width:2.73166704;stroke-linecap:round;stroke-linejoin:round;stroke-miterlimit:4;stroke-dasharray:none;stroke-opacity:1"
       d="m 468.69871,1007.5754 2.56664,0 c 1.57945,0 2.85099,1.2715 2.85099,2.851 l 0,17.9547 c 0,1.5795 -1.27154,2.851 -2.85099,2.851 l -2.56664,0 c -1.57945,0 -2.85099,-1.2715 -2.85099,-2.851 l 0,-17.9547 c 0,-1.5795 1.27154,-2.851 2.85099,-2.851 z"
       id="rect4228-6-7" />
    <path
       style="fill:none;fill-opacity:1;stroke:#f9b800;stroke-width:2.70359015;stroke-linecap:round;stroke-linejoin:round;stroke-miterlimit:4;stroke-dasharray:none;stroke-opacity:1"
       d="m 631.44138,1007.5615 2.73023,0 c 1.54191,0 2.78323,1.2413 2.78323,2.7833 l 0,17.528 c 0,1.5419 -1.24132,2.7832 -2.78323,2.7832 l -2.73023,0 c -1.54191,0 -2.78324,-1.2413 -2.78324,-2.7832 l 0,-17.528 c 0,-1.542 1.24133,-2.7833 2.78324,-2.7833 z"
       id="rect4228-6-5" />
    <path
       style="fill:none;fill-opacity:1;stroke:#f9b800;stroke-width:2.73166704;stroke-linecap:round;stroke-linejoin:round;stroke-miterlimit:4;stroke-dasharray:none;stroke-opacity:1"
       d="m 648.64189,1007.2803 2.56663,0 c 1.57946,0 2.851,1.2715 2.851,2.851 l 0,17.9547 c 0,1.5794 -1.27154,2.851 -2.851,2.851 l -2.56663,0 c -1.57945,0 -2.851,-1.2716 -2.851,-2.851 l 0,-17.9547 c 0,-1.5795 1.27155,-2.851 2.851,-2.851 z"
       id="rect4228-6-7-3" />
    <path
       style="fill:none;fill-rule:evenodd;stroke:#f9b800;stroke-width:3;stroke-linecap:butt;stroke-linejoin:round;stroke-miterlimit:4;stroke-dasharray:none;stroke-opacity:1"
       d="m 555.58421,27.20134 c -0.10413,-2.56126 -0.0115,-12.684777 -0.0215,-13.689617 -0.1424,-1.81842 -0.37778,-3.5673184 -1.55273,-4.6113284 -0.76963,-0.365225 -1.55199,-0.5787581 -2.34961,-0.5800781 l -2e-4,-4e-6 c -0.79763,-0.00132 -1.61022,0.2095475 -2.44532,0.6953125 -1.18025,1.24116 -1.55473,2.904498 -1.86718,4.517578 0.12895,1.16475 -0.44555,11.144687 -0.11719,13.810547 0.0465,0.107044 0.0891,0.232281 0.13281,0.351562 m 8.16653,0.0093 c -0.87365,3.13447 -1.35906,10.640351 -0.065,13.205589 -3e-5,0.01092 3e-5,0.02422 0,0.03516 89.97476,0.03182 151.47176,-3.991418 149.32618,-4.539062 3.54636,-1.00763 5.57595,-2.579649 0.13867,-3.755859 -20.44683,-1.627519 -89.2923,-3.444326 -148.67525,-5.071846 z m -8.47708,13.223167 c -0.0346,0.07459 -0.0653,0.157134 -0.10156,0.228516 -0.79902,32.41079 -2.54253,104.35074 -3.20508,132.19922 l 15.32032,-0.17774 C 558.48265,146.57504 555.38,73.772876 555.46484,40.945312 m -8.41211,-0.01758 c 1.59727,-3.445308 1.41553,-10.215282 0.31055,-13.232422 -85.61783,1.263775 -125.13116,3.06101 -149.13281,5.03711 -6.09944,0.75885 -2.81712,3.705336 -0.18164,3.878906 53.46446,3.02834 104.45231,4.176084 149.0039,4.316406 z"
       transform="translate(0,698.03149)"
       id="path4301"
       inkscape:connector-curvature="0"
       sodipodi:nodetypes="cccscccccccccccccccccccccc" />
    <path
       style="fill:none;fill-rule:evenodd;stroke:#f9b800;stroke-width:3;stroke-linecap:butt;stroke-linejoin:round;stroke-miterlimit:4;stroke-dasharray:none;stroke-opacity:1"
       d="m 731.14353,872.23647 c -13.31532,0.0463 -20.56305,5.4108 -22.61491,21.33684 0.0905,7.73459 0.64721,11.89558 2.28288,18.52346 1.63566,6.62788 1.1415,9.98137 3.95179,18.11814 2.81029,8.13677 25.85629,8.33055 29.42349,0.29378 3.56719,-8.03678 2.8785,-8.41941 4.42693,-18.20244 1.54844,-9.78304 1.84863,-10.26002 1.93459,-19.05313 0.086,-8.7931 -6.08946,-21.06299 -19.40477,-21.01665 z"
       id="path4525"
       inkscape:connector-curvature="0"
       sodipodi:nodetypes="zczzzzzz" />
    <path
       style="fill:none;fill-rule:evenodd;stroke:#f9b800;stroke-width:2;stroke-linecap:butt;stroke-linejoin:round;stroke-miterlimit:4;stroke-dasharray:none;stroke-opacity:1"
       d="m 675.1552,1012.5 c -3.46047,-2.047 -18.75966,-15.45525 -41.46226,-22.47033 -6.05754,-0.21443 -4.99641,6.24443 -1.94789,6.40022 34.66722,9.47831 30.11199,11.40941 43.41015,16.07011 z"
       id="path4307"
       inkscape:connector-curvature="0"
       sodipodi:nodetypes="cccc" />
    <path
       style="fill:none;fill-rule:evenodd;stroke:#f9b800;stroke-width:2;stroke-linecap:butt;stroke-linejoin:round;stroke-miterlimit:4;stroke-dasharray:none;stroke-opacity:1"
       d="m 428.2001,1012.2858 c 3.46047,-2.047 18.75966,-15.45525 41.46226,-22.47033 6.05754,-0.21443 4.99641,6.24443 1.94789,6.40022 -34.66722,9.47831 -30.11199,11.40941 -43.41015,16.07011 z"
       id="path4307-5"
       inkscape:connector-curvature="0"
       sodipodi:nodetypes="cccc" />
    <path
       style="fill:none;fill-rule:evenodd;stroke:#f9b800;stroke-width:1.95365322;stroke-linecap:butt;stroke-linejoin:round;stroke-miterlimit:4;stroke-dasharray:none;stroke-opacity:1"
       d="m 463.64451,991.35602 c 0.0347,-5.3309 1.46489,-12.31983 3.91567,-14.84336 3.76476,0.71583 4.72808,2.44537 6.07601,4.03575"
       id="path4328"
       inkscape:connector-curvature="0"
       sodipodi:nodetypes="ccc" />
    <path
       style="fill:none;fill-rule:evenodd;stroke:#f9b800;stroke-width:2.04630065;stroke-linecap:butt;stroke-linejoin:round;stroke-miterlimit:4;stroke-dasharray:none;stroke-opacity:1"
       d="m 639.10588,991.58791 c -0.0376,-5.41039 -1.5835,-12.50354 -4.23274,-15.06469 -4.06961,0.7265 -5.11094,2.48184 -6.56802,4.09592"
       id="path4328-6"
       inkscape:connector-curvature="0"
       sodipodi:nodetypes="ccc" />
    <path
       style="fill:none;fill-rule:evenodd;stroke:#f9b800;stroke-width:2;stroke-linecap:round;stroke-linejoin:round;stroke-miterlimit:4;stroke-dasharray:none;stroke-opacity:1"
       d="m 608.37035,985.29908 c 2.01613,-0.19957 4.3713,-0.54982 8.48557,-1.68189 1.17363,4.43901 -0.80336,7.5483 -2.99865,10.79524 -2.16331,-3.0025 -2.08355,-3.48759 -6.65159,-6.11623 z"
       id="path4349"
       inkscape:connector-curvature="0"
       sodipodi:nodetypes="ccccc" />
    <path
       style="fill:none;fill-rule:evenodd;stroke:#f9b800;stroke-width:2;stroke-linecap:round;stroke-linejoin:round;stroke-miterlimit:4;stroke-dasharray:none;stroke-opacity:1"
       d="m 493.83105,985.22786 c -2.01613,-0.19957 -4.3713,-0.54982 -8.48557,-1.68189 -1.17363,4.43901 0.80336,7.5483 2.99865,10.79524 2.16331,-3.0025 2.08355,-3.48759 6.65159,-6.11623 z"
       id="path4349-2"
       inkscape:connector-curvature="0"
       sodipodi:nodetypes="ccccc" />
    <path
       style="fill:none;fill-rule:evenodd;stroke:#f9b800;stroke-width:3;stroke-linecap:butt;stroke-linejoin:round;stroke-miterlimit:4;stroke-dasharray:none;stroke-opacity:1"
       d="m 602.03203,916.30848 c 0.19776,-7.83727 2.52302,-23.28172 -5.81371,-25.33084 -30.97537,-3.54449 -60.63296,-2.88562 -89.27807,0.56066 -4.02885,1.05797 -5.13399,3.5778 -5.87805,6.27817 l -0.25,18.78491"
       id="path4368"
       inkscape:connector-curvature="0"
       sodipodi:nodetypes="ccccc" />
    <path
       style="fill:none;fill-rule:evenodd;stroke:#f9b800;stroke-width:3;stroke-linecap:butt;stroke-linejoin:miter;stroke-miterlimit:4;stroke-dasharray:none;stroke-opacity:1"
       d="m 551.47389,1024.5199 -0.0884,-27.22364 0,0"
       id="path4415"
       inkscape:connector-curvature="0" />
    <path
       style="fill:none;fill-opacity:1;stroke:#f9b800;stroke-width:2.22930932;stroke-linecap:round;stroke-linejoin:miter;stroke-miterlimit:4;stroke-dasharray:none;stroke-opacity:1"
       d="m 549.87701,1020.0047 2.95831,0 0,4.1736 -2.95831,0 z"
       id="rect4419" />
    <path
       style="fill:none;fill-opacity:1;stroke:#f9b800;stroke-width:1.29664683;stroke-linecap:round;stroke-linejoin:miter;stroke-miterlimit:4;stroke-dasharray:none;stroke-opacity:1"
       d="m 550.17199,1003.1434 a 3.0079267,3.0704267 0 0 1 -3.00793,3.0704 3.0079267,3.0704267 0 0 1 -3.00792,-3.0704 3.0079267,3.0704267 0 0 1 3.00792,-3.0705 3.0079267,3.0704267 0 0 1 3.00793,3.0705 z"
       id="path4421" />
    <path
       style="fill:none;fill-opacity:1;stroke:#f9b800;stroke-width:1.29664683;stroke-linecap:round;stroke-linejoin:miter;stroke-miterlimit:4;stroke-dasharray:none;stroke-opacity:1"
       d="m 558.89074,1003.2372 a 3.0079267,3.0704267 0 0 1 -3.00793,3.0704 3.0079267,3.0704267 0 0 1 -3.00792,-3.0704 3.0079267,3.0704267 0 0 1 3.00792,-3.0704 3.0079267,3.0704267 0 0 1 3.00793,3.0704 z"
       id="path4421-1" />
    <path
       style="fill:#f9b800;fill-opacity:1;stroke:#f9b800;stroke-width:1;stroke-linecap:round;stroke-linejoin:miter;stroke-miterlimit:4;stroke-dasharray:none;stroke-opacity:1"
       d="m 635.82623,1015.2431 11.73821,0 c 0.831,0 1.5,0.669 1.5,1.5 l 0,4.8632 c 0,0.831 -0.669,1.5 -1.5,1.5 l -11.73821,0 c -0.831,0 -1.5,-0.669 -1.5,-1.5 l 0,-4.8632 c 0,-0.831 0.669,-1.5 1.5,-1.5 z"
       id="rect4438" />
    <path
       style="fill:none;fill-rule:evenodd;stroke:#f9b800;stroke-width:4;stroke-linecap:butt;stroke-linejoin:round;stroke-miterlimit:4;stroke-dasharray:none;stroke-opacity:1"
       d="m 626.19532,996.8622 c 7.75706,4.5523 13.03341,7.1142 15.125,11 l -0.25,11.875"
       id="path4442"
       inkscape:connector-curvature="0"
       sodipodi:nodetypes="ccc" />
    <path
       transform="scale(-1,1)"
       style="fill:#f9b800;fill-opacity:1;stroke:#f9b800;stroke-width:1;stroke-linecap:round;stroke-linejoin:miter;stroke-miterlimit:4;stroke-dasharray:none;stroke-opacity:1"
       d="m -466.7428,1015.3585 11.73821,0 c 0.831,0 1.5,0.669 1.5,1.5 l 0,4.8632 c 0,0.831 -0.669,1.5 -1.5,1.5 l -11.73821,0 c -0.831,0 -1.5,-0.669 -1.5,-1.5 l 0,-4.8632 c 0,-0.831 0.669,-1.5 1.5,-1.5 z"
       id="rect4438-7" />
    <path
       style="fill:none;fill-rule:evenodd;stroke:#f9b800;stroke-width:4;stroke-linecap:butt;stroke-linejoin:round;stroke-miterlimit:4;stroke-dasharray:none;stroke-opacity:1"
       d="m 476.37372,996.9776 c -7.75706,4.5523 -13.03341,7.1142 -15.125,11 l 0.25,11.875"
       id="path4442-0"
       inkscape:connector-curvature="0"
       sodipodi:nodetypes="ccc" />
    <path
       style="fill:none;fill-opacity:1;fill-rule:evenodd;stroke:#f9b800;stroke-width:2.84168506;stroke-linecap:butt;stroke-linejoin:round;stroke-miterlimit:4;stroke-dasharray:none;stroke-opacity:1"
       d="m 167.10406,887.32896 c 0.30363,5.80799 1.14518,16.75239 4.02853,17.08716 2.50905,-0.54744 3.63231,-10.27849 4.37986,-16.74712"
       id="path4472-9"
       inkscape:connector-curvature="0"
       sodipodi:nodetypes="ccc" />
    <path
       style="fill:none;fill-opacity:1;fill-rule:evenodd;stroke:#f9b800;stroke-width:2.79608011;stroke-linecap:butt;stroke-linejoin:round;stroke-miterlimit:4;stroke-dasharray:none;stroke-opacity:1"
       d="m 339.70449,892.1239 c 0.30472,5.60292 1.14929,16.16089 4.04301,16.48384 2.51807,-0.52811 3.64537,-9.91557 4.39561,-16.15581"
       id="path4472-3"
       inkscape:connector-curvature="0"
       sodipodi:nodetypes="ccc" />
    <path
       style="fill:none;fill-opacity:1;fill-rule:evenodd;stroke:#f9b800;stroke-width:2.84168506;stroke-linecap:butt;stroke-linejoin:round;stroke-miterlimit:4;stroke-dasharray:none;stroke-opacity:1"
       d="m 426.33559,893.49379 c 0.30363,5.80799 1.14518,16.75239 4.02853,17.08716 2.50905,-0.54744 3.63231,-10.27849 4.37986,-16.74712"
       id="path4472-6"
       inkscape:connector-curvature="0"
       sodipodi:nodetypes="ccc" />
    <path
       style="fill:none;fill-opacity:1;fill-rule:evenodd;stroke:#f9b800;stroke-width:2.83037138;stroke-linecap:butt;stroke-linejoin:round;stroke-miterlimit:4;stroke-dasharray:none;stroke-opacity:1"
       d="m 668.47785,894.63897 c 0.38743,5.75168 1.38711,16.58607 4.27755,16.87596 2.50314,-0.57901 3.48728,-10.23942 4.14235,-16.66112"
       id="path4472-0"
       inkscape:connector-curvature="0"
       sodipodi:nodetypes="ccc" />
    <path
       style="fill:none;fill-opacity:1;fill-rule:evenodd;stroke:#f9b800;stroke-width:2.72585058;stroke-linecap:butt;stroke-linejoin:round;stroke-miterlimit:4;stroke-dasharray:none;stroke-opacity:1"
       d="m 754.89065,893.91962 c 0.39888,5.28962 1.42235,15.25247 4.33692,15.50682 2.52285,-0.54332 3.50117,-9.43463 4.15238,-15.34507"
       id="path4472-62"
       inkscape:connector-curvature="0"
       sodipodi:nodetypes="ccc" />
    <path
       style="fill:none;fill-opacity:1;fill-rule:evenodd;stroke:#f9b800;stroke-width:2.7845304;stroke-linecap:butt;stroke-linejoin:round;stroke-miterlimit:4;stroke-dasharray:none;stroke-opacity:1"
       d="m 841.06016,890.89313 c 0.49791,5.53773 1.70659,15.96343 4.61232,16.1825 2.50062,-0.61062 3.30474,-9.94587 3.84015,-16.15142"
       id="path4472-61"
       inkscape:connector-curvature="0"
       sodipodi:nodetypes="ccc" />
    <path
       style="fill:none;fill-opacity:1;fill-rule:evenodd;stroke:#f9b800;stroke-width:2.7845304;stroke-linecap:butt;stroke-linejoin:round;stroke-miterlimit:4;stroke-dasharray:none;stroke-opacity:1"
       d="m 927.78074,888.53649 c 0.62862,5.52441 2.08332,15.91865 4.99341,16.069 2.4855,-0.66954 3.06881,-10.02119 3.45744,-16.23766"
       id="path4472-8"
       inkscape:connector-curvature="0"
       sodipodi:nodetypes="ccc" />
    <path
       style="fill:none;fill-rule:evenodd;stroke:#f9b800;stroke-width:3;stroke-linecap:butt;stroke-linejoin:round;stroke-miterlimit:4;stroke-dasharray:none;stroke-opacity:1"
       d="m 374.64538,872.06417 c -13.31532,0.0463 -20.56305,5.4108 -22.61491,21.33684 0.0905,7.73459 0.64721,11.89558 2.28288,18.52346 1.63566,6.62788 1.1415,9.98137 3.95179,18.11814 2.81029,8.13677 25.85629,8.33055 29.42349,0.29378 3.56719,-8.03678 2.8785,-8.41941 4.42693,-18.20244 1.54844,-9.78304 1.84863,-10.26002 1.93459,-19.05313 0.086,-8.7931 -6.08946,-21.06299 -19.40477,-21.01665 z"
       id="path4525-7"
       inkscape:connector-curvature="0"
       sodipodi:nodetypes="zczzzzzz" />
    <path
       style="fill:none;fill-rule:evenodd;stroke:#f9b800;stroke-width:3;stroke-linecap:round;stroke-linejoin:miter;stroke-miterlimit:4;stroke-dasharray:none;stroke-opacity:1"
       d="m 372.12839,1033.7178 356.80127,0 0.35644,0"
       id="path4592"
       inkscape:connector-curvature="0" />
    <path
       inkscape:connector-curvature="0"
       id="path5009-6-8-9-2-9-7"
       style="fill:none;fill-rule:evenodd;stroke:#f9b800;stroke-width:3.18910217;stroke-linecap:butt;stroke-linejoin:round;stroke-miterlimit:4;stroke-dasharray:none;stroke-opacity:1"
       d="m 730.30373,884.757 c 2.25723,-16.8174 11.17406,-40.19225 -0.54608,-67.86794 -1.50789,-2.34192 -4.58998,-1.28923 -3.76374,1.73421 5.49731,24.48396 5.95684,46.56813 4.30982,66.13373 z m -1.26932,24.21956 c -2.07773,16.8405 -10.74474,40.30917 1.26996,67.85823 1.53276,2.32577 4.60346,1.2402 3.74502,-1.77426 -5.75815,-24.42391 -6.45322,-46.50194 -5.01498,-66.08397 z m 11.06717,-4.83367 c 13.47676,10.31004 29.33856,29.65678 59.18092,33.2261 2.78155,-0.14601 3.39823,-3.34395 0.36361,-4.12808 -23.98194,-7.38591 -43.37932,-17.95301 -59.54453,-29.09802 z m 0.0315,-11.97272 c 15.7259,-6.37307 40.4476,-10.21119 58.67848,-34.10556 1.28697,-2.47023 -1.15468,-4.62565 -3.37136,-2.40976 -18.54232,16.90766 -37.49656,28.25039 -55.30712,36.51532 z m -20.53026,-1.05178 c -13.43136,-10.3691 -29.20809,-29.78528 -59.03447,-33.48555 -2.78217,0.13371 -3.4129,3.32897 -0.38172,4.12641 23.94929,7.49114 43.30009,18.14327 59.41619,29.35914 z m -1.57258,5.73448 a 11.620542,11.620542 0 0 0 11.62054,11.62054 11.620542,11.620542 0 0 0 11.62054,-11.62054 11.620542,11.620542 0 0 0 -11.62054,-11.62056 11.620542,11.620542 0 0 0 -11.62054,11.62056 z m 1.16205,5.81024 c -15.64069,6.57941 -40.30976,10.74242 -58.22476,34.87451 -1.25434,2.48694 1.21544,4.61005 3.40279,2.36517 18.31828,-17.1501 37.12167,-28.74118 54.82197,-37.23968 z" />
    <path
       inkscape:connector-curvature="0"
       id="path5009-6-8-9-2-9"
       style="fill:none;fill-rule:evenodd;stroke:#f9b800;stroke-width:3.18910217;stroke-linecap:butt;stroke-linejoin:round;stroke-miterlimit:4;stroke-dasharray:none;stroke-opacity:1"
       d="m 371.91268,886.16723 c -2.25723,-16.8174 -11.17406,-40.19225 0.54608,-67.86794 1.50789,-2.34192 4.58998,-1.28923 3.76374,1.73421 -5.49731,24.48396 -5.95684,46.56813 -4.30982,66.13373 z m 1.26932,24.21956 c 2.07773,16.84051 10.74474,40.30918 -1.26996,67.85824 -1.53276,2.32577 -4.60346,1.2402 -3.74502,-1.77426 5.75815,-24.42391 6.45322,-46.50194 5.01498,-66.08398 z m -11.06717,-4.83367 c -13.47676,10.31005 -29.33856,29.65679 -59.18092,33.22611 -2.78155,-0.14601 -3.39823,-3.34395 -0.36361,-4.12808 23.98194,-7.38591 43.37932,-17.95301 59.54453,-29.09803 z m -0.0315,-11.97272 c -15.7259,-6.37307 -40.4476,-10.21119 -58.67848,-34.10556 -1.28697,-2.47023 1.15468,-4.62565 3.37136,-2.40976 18.54232,16.90766 37.49656,28.25039 55.30712,36.51532 z m 20.53026,-1.05178 c 13.43136,-10.3691 29.20809,-29.78528 59.03447,-33.48555 2.78217,0.13371 3.4129,3.32897 0.38172,4.12641 -23.94929,7.49114 -43.30009,18.14327 -59.41619,29.35914 z m 1.57258,5.73448 a 11.620542,11.620542 0 0 1 -11.62054,11.62054 11.620542,11.620542 0 0 1 -11.62054,-11.62054 11.620542,11.620542 0 0 1 11.62054,-11.62056 11.620542,11.620542 0 0 1 11.62054,11.62056 z m -1.16205,5.81024 c 15.64069,6.57941 40.30976,10.74242 58.22476,34.87452 1.25434,2.48694 -1.21544,4.61005 -3.40279,2.36517 -18.31828,-17.1501 -37.12167,-28.74119 -54.82197,-37.23969 z" />
  </g>
</svg>
